<svg width="31" height="27" viewBox="0 0 31 27" fill="none" xmlns="http://www.w3.org/2000/svg">
<g clip-path="url(#clip0_106_1793)">
<path d="M5.28906 11.4539C6.94375 11.4539 8.28906 9.99644 8.28906 8.20386C8.28906 6.41128 6.94375 4.95386 5.28906 4.95386C3.63438 4.95386 2.28906 6.41128 2.28906 8.20386C2.28906 9.99644 3.63438 11.4539 5.28906 11.4539ZM26.2891 11.4539C27.9438 11.4539 29.2891 9.99644 29.2891 8.20386C29.2891 6.41128 27.9438 4.95386 26.2891 4.95386C24.6344 4.95386 23.2891 6.41128 23.2891 8.20386C23.2891 9.99644 24.6344 11.4539 26.2891 11.4539ZM27.7891 13.0789H24.7891C23.9641 13.0789 23.2188 13.4394 22.675 14.0234C24.5641 15.1457 25.9047 17.1718 26.1953 19.5789H29.2891C30.1187 19.5789 30.7891 18.8527 30.7891 17.9539V16.3289C30.7891 14.5363 29.4438 13.0789 27.7891 13.0789ZM15.7891 13.0789C18.6906 13.0789 21.0391 10.5347 21.0391 7.39136C21.0391 4.248 18.6906 1.70386 15.7891 1.70386C12.8875 1.70386 10.5391 4.248 10.5391 7.39136C10.5391 10.5347 12.8875 13.0789 15.7891 13.0789ZM19.3891 14.7039H19C18.025 15.2117 16.9422 15.5164 15.7891 15.5164C14.6359 15.5164 13.5578 15.2117 12.5781 14.7039H12.1891C9.20781 14.7039 6.78906 17.3242 6.78906 20.5539V22.0164C6.78906 23.3621 7.79688 24.4539 9.03906 24.4539H22.5391C23.7812 24.4539 24.7891 23.3621 24.7891 22.0164V20.5539C24.7891 17.3242 22.3703 14.7039 19.3891 14.7039ZM8.90313 14.0234C8.35938 13.4394 7.61406 13.0789 6.78906 13.0789H3.78906C2.13438 13.0789 0.789062 14.5363 0.789062 16.3289V17.9539C0.789062 18.8527 1.45937 19.5789 2.28906 19.5789H5.37813C5.67344 17.1718 7.01406 15.1457 8.90313 14.0234Z" fill="#4BC4FB"/>
</g>
<defs>
<clipPath id="clip0_106_1793">
<rect width="30" height="26" fill="white" transform="translate(0.789062 0.0788574)"/>
</clipPath>
</defs>
</svg>
